<svg width="161" height="49" viewBox="0 0 161 49" fill="none" xmlns="http://www.w3.org/2000/svg">
<path fill-rule="evenodd" clip-rule="evenodd" d="M0 11.4283C0 5.48481 4.81813 0.666687 10.7616 0.666687H51.6117C57.5552 0.666687 62.3733 5.48481 62.3733 11.4283C62.3733 17.3717 57.5552 22.1899 51.6117 22.1899H35.64C34.2721 22.1899 33.1632 23.2988 33.1632 24.6667C33.1632 26.0346 34.2721 27.1435 35.64 27.1435H150.003C155.947 27.1435 160.765 31.9616 160.765 37.9051C160.765 43.8486 155.947 48.6667 150.003 48.6667H10.7616C4.81817 48.6667 4.88281e-05 43.8486 4.88281e-05 37.9051C4.88281e-05 31.9616 4.81818 27.1435 10.7616 27.1435H26.7332C28.1011 27.1435 29.21 26.0346 29.21 24.6667C29.21 23.2988 28.1011 22.1899 26.7332 22.1899H10.7616C4.81813 22.1899 0 17.3717 0 11.4283ZM63.7516 42.5522C62.9974 42.5522 62.4076 42.4461 61.9835 42.2314C61.5581 42.018 61.2612 41.6986 61.0916 41.2705C60.9219 40.8438 60.8371 40.3163 60.8371 39.6854V36.1162C60.8371 35.0917 61.0651 34.3363 61.5223 33.8512C61.9782 33.3661 62.7218 33.1223 63.7529 33.1223H68.5467C69.2796 33.1223 69.8389 33.162 70.2273 33.2429C70.6143 33.3224 70.8091 33.4059 70.8091 33.4907L70.491 34.8187C70.3108 34.7869 69.7766 34.7524 68.89 34.714C68.0033 34.6769 66.7164 34.6583 65.0279 34.6583H64.2154C63.3659 34.6583 62.9418 35.0374 62.9418 35.7955V39.8776C62.9418 40.2407 63.0345 40.5204 63.2201 40.7179C63.4056 40.9153 63.7383 41.0134 64.2154 41.0134H64.8688C66.6316 41.0134 67.9993 40.9949 68.9708 40.9578C69.9423 40.9206 70.5453 40.8809 70.7786 40.8372L71.432 41.8935C71.432 41.9465 71.3445 42.0273 71.1696 42.1334C70.9946 42.2407 70.6726 42.3361 70.2061 42.421C69.7382 42.5058 69.0649 42.5495 68.1836 42.5495H63.7555L63.7516 42.5522ZM28.2322 42.5521V34.421L28.0732 33.1248H35.1294C35.8093 33.1248 36.3421 33.2163 36.7304 33.3965C37.1174 33.5781 37.405 33.8153 37.5906 34.1082C37.7761 34.4025 37.8954 34.7139 37.9484 35.0453C38.0014 35.3766 38.0279 35.6907 38.0279 35.9903V36.9352C38.0279 37.1804 37.9908 37.4561 37.9166 37.7596C37.8424 38.0631 37.7045 38.3573 37.5031 38.6396C37.3016 38.9219 37.0087 39.1579 36.627 39.3434C36.2453 39.5303 35.7457 39.6231 35.1294 39.6231H33.5045C32.8352 39.6231 32.2109 39.6072 31.6331 39.5753C31.0539 39.5435 30.6218 39.517 30.3356 39.4958V42.5534H28.2335L28.2322 42.5521ZM30.3342 38.0856H34.6668C35.1453 38.0856 35.474 37.9677 35.6542 37.7331C35.8345 37.4985 35.9246 37.2162 35.9246 36.8849V35.8763C35.9246 35.5343 35.8345 35.2467 35.6542 35.0121C35.474 34.7776 35.1492 34.6596 34.6827 34.6596H30.3342V38.0856ZM13.0358 42.552C12.3135 42.552 11.7833 42.5202 11.4427 42.4566C11.1034 42.393 10.9324 42.3174 10.9324 42.2326L11.5699 40.8397C11.8138 40.8821 12.4221 40.9218 13.3936 40.9603C14.3651 40.9974 15.7011 41.0159 17.4002 41.0159H17.7024C18.1583 41.0159 18.483 40.9338 18.6739 40.7681C18.8647 40.6024 18.9601 40.3228 18.9601 39.9278V39.6071C18.9601 39.2333 18.8833 38.9669 18.7295 38.8066C18.5758 38.6462 18.2325 38.5667 17.7024 38.5667H14.0073C12.9351 38.5667 12.1544 38.3666 11.6654 37.9663C11.1763 37.566 10.9324 36.9126 10.9324 36.0048V35.749C10.9324 35.2798 11.0199 34.8477 11.1949 34.4528C11.3698 34.0578 11.6693 33.7411 12.0948 33.4999C12.5189 33.26 13.1034 33.1394 13.8469 33.1394H18.1795C18.9018 33.1394 19.485 33.1765 19.9316 33.252C20.3783 33.3262 20.6009 33.4071 20.6009 33.4919L20.2828 34.8371C20.0072 34.8053 19.3803 34.7709 18.4035 34.7324C17.4267 34.6953 16.1146 34.6768 14.4685 34.6768L14.2936 34.6609C13.8045 34.6609 13.4758 34.7603 13.3062 34.9564C13.1365 35.1539 13.0451 35.4017 13.0358 35.7013V35.973C13.0358 36.3255 13.1339 36.5893 13.33 36.7655C13.5262 36.9418 13.8535 37.0293 14.3095 37.0293H17.8455C18.5254 37.0293 19.1046 37.0982 19.5817 37.2374C20.0602 37.3765 20.426 37.6297 20.6804 37.9981C20.9349 38.3666 21.0621 38.9086 21.0621 39.623V39.8788C21.0621 40.6793 20.858 41.3248 20.4485 41.8151C20.039 42.3055 19.3312 42.552 18.3226 42.552H13.0358ZM47.4725 33.1394L42.8059 42.552H45.1306L46.1657 40.5189H51.8687L52.8084 42.552H55.2616L50.6109 33.1394H47.4725ZM51.2802 38.951H46.7422L48.9397 34.5813H49.0987L51.2802 38.951ZM77.8007 33.1394V42.552H86.4977C87.1988 42.552 87.6932 42.5335 87.9795 42.4964C88.2657 42.4579 88.4089 42.4182 88.4089 42.3758L87.7714 41.0146H79.9027V38.4699H85.8602V36.8848H79.9027V34.6754H87.7078V33.1394H77.8007ZM97.9819 42.5521L97.966 34.6609H93.8243V33.1248H104.242V34.6609H100.084V42.5521H97.9819ZM110.613 33.1394V42.552H112.715V33.1394H110.613ZM120.202 42.5522V34.4212L120.043 33.1409H122.464L126.064 39.5437L129.791 33.1409H131.94V42.5535H129.838V36.5828H129.663L129.042 37.9758L127.035 41.594H125.108L123.101 37.9758L122.464 36.5828H122.305V42.5535H120.203L120.202 42.5522ZM139.268 33.1394V42.552H147.965C148.666 42.552 149.16 42.5335 149.447 42.4964C149.733 42.4579 149.876 42.4182 149.876 42.3758L149.239 41.0146H141.37V38.4699H147.327V36.8848H141.37V34.6754H149.175V33.1394H139.268ZM13.9613 8.89919V11.1753V11.1765L10.9265 12.402L13.9613 13.6335V15.912L8.04073 13.5736H8.02851V11.2388H8.04073L13.9613 8.89919ZM48.4541 15.7911V13.5162L51.4865 12.292L48.4541 11.0678V8.79169L54.3662 11.1289H54.3808V13.4661H54.3662L48.4541 15.7911ZM45.9153 5.57482L42.4382 17.4295H44.503L47.9801 5.57482H45.9153ZM23.5216 10.986C23.5583 10.0587 23.2492 9.15462 22.6615 8.46922H22.6628C22.372 8.14546 22.0189 7.89133 21.6279 7.72395C21.237 7.55657 20.8179 7.48082 20.3964 7.49915C19.9444 7.47838 19.4935 7.55657 19.0708 7.72762C18.6481 7.89866 18.262 8.16012 17.9382 8.49488V7.74594H15.8735V16.0355H17.9382V12.3642C17.9382 10.4595 18.5846 9.50771 19.8772 9.50771C20.0934 9.49793 20.3097 9.5407 20.5088 9.63233C20.7067 9.72396 20.8839 9.86324 21.0256 10.0379C21.3274 10.4375 21.4813 10.9396 21.4569 11.4503V16.0355H23.5216V10.986ZM26.1497 4.29827V16.1529H28.2144V4.29827H26.1497ZM38.1583 15.718H39.8798L42.7765 7.41371H40.57L38.9439 12.396L37.2689 7.41371H35.6586L33.9836 12.3801L32.3574 7.41371H30.151L33.0453 15.718H34.7655L36.4698 10.8346L38.1583 15.718Z" fill="url(#paint0_linear_19_262)"/>
<defs>
<linearGradient id="paint0_linear_19_262" x1="12.8968" y1="0.666687" x2="200.883" y2="59.1723" gradientUnits="userSpaceOnUse">
<stop offset="0.251308" stop-color="#996DFF"/>
<stop offset="0.623787" stop-color="#FF876E"/>
<stop offset="1" stop-color="#FFD072"/>
</linearGradient>
</defs>
</svg>
